# xmcd CD database file
#
# Track frame offsets:
#	182
#	16032
#	31077
#	45367
#	62197
#	72477
#	86470
#	100985
#	110885
#	128477
#	139847
#	159820
#	173467
#
# Disc length: 2582 seconds
#
# Revision: 1
# Processed by: cddbd v1.5.1PL2 Copyright (c) Steve Scherf et al.
# Submitted via: CDex 1.51
#
DISCID=9b0a140d
DTITLE=Penthouse - My Idle Hands
DYEAR=2000
DGENRE=Rock
TTITLE0=Creeper's Reef
TTITLE1=Valley Of The Sows
TTITLE2=Man O' Fire
TTITLE3=Detunabilly
TTITLE4=Petit Sang
TTITLE5=The Pool At Blood Gulley
TTITLE6=Head Of The Wake
TTITLE7=Giant Haystacks
TTITLE8=Nudie Toon
TTITLE9=Lil' Brown Kisses 
TTITLE10=Beautiful Be The Indolent
TTITLE11=Wot Meanders
TTITLE12=The Forty Ninth Ton
EXTD=YEAR: 2000
EXTT0=
EXTT1=
EXTT2=
EXTT3=
EXTT4=
EXTT5=
EXTT6=
EXTT7=
EXTT8=
EXTT9=
EXTT10=
EXTT11=
EXTT12=
PLAYORDER=
